# xmcd CD database file
#
# Track frame offsets:
#	150
#	17863
#	37603
#	55615
#	76063
#	92633
#	116463
#	136805
#	156645
#	178768
#	194210
#	214268
#	235793
#
# Disc length: 3376 seconds
#
# Revision: 0
# Processed by: cddbd v1.5.1PL2 Copyright (c) Steve Scherf et al.
# Submitted via: CDex 1.51
#
DISCID=a80d2e0d
DTITLE=扇愛奈 - ニッポンの150?
DYEAR=2006
DGENRE=JPop
TTITLE0=17才
TTITLE1=輪廻
TTITLE2=スタンプラリー
TTITLE3=片付けられない女
TTITLE4=靴ずれソナタ
TTITLE5=レトルト
TTITLE6=コイバナ
TTITLE7=旅情
TTITLE8=六本木通り
TTITLE9=100万kmのワナ
TTITLE10=うれしい昼寝
TTITLE11=マッサージ
TTITLE12=未設定ジャーニー
EXTD=YEAR: 2006
EXTT0=
EXTT1=
EXTT2=
EXTT3=
EXTT4=
EXTT5=
EXTT6=
EXTT7=
EXTT8=
EXTT9=
EXTT10=
EXTT11=
EXTT12=
PLAYORDER=
